<?xml version="1.0" encoding="UTF-8" standalone="no"?>
<!-- Created with Inkscape (http://www.inkscape.org/) -->

<svg
   width="119.23252mm"
   height="112.08308mm"
   viewBox="0 0 119.23252 112.08308"
   version="1.1"
   id="svg1"
   inkscape:version="1.3.2 (091e20e, 2023-11-25, custom)"
   sodipodi:docname="saas-connectivity.svg"
   xmlns:inkscape="http://www.inkscape.org/namespaces/inkscape"
   xmlns:sodipodi="http://sodipodi.sourceforge.net/DTD/sodipodi-0.dtd"
   xmlns:xlink="http://www.w3.org/1999/xlink"
   xmlns="http://www.w3.org/2000/svg"
   xmlns:svg="http://www.w3.org/2000/svg">
  <sodipodi:namedview
     id="namedview1"
     pagecolor="#505050"
     bordercolor="#eeeeee"
     borderopacity="1"
     inkscape:showpageshadow="0"
     inkscape:pageopacity="0"
     inkscape:pagecheckerboard="0"
     inkscape:deskcolor="#d1d1d1"
     inkscape:document-units="mm"
     inkscape:zoom="0.53858859"
     inkscape:cx="131.82604"
     inkscape:cy="641.49149"
     inkscape:window-width="2400"
     inkscape:window-height="1261"
     inkscape:window-x="-9"
     inkscape:window-y="-9"
     inkscape:window-maximized="1"
     inkscape:current-layer="layer1" />
  <defs
     id="defs1">
    <linearGradient
       id="linearGradient15"
       inkscape:collect="always">
      <stop
         style="stop-color:#0033a1;stop-opacity:1;"
         offset="0.3499282"
         id="stop15" />
      <stop
         style="stop-color:#0071ce;stop-opacity:0.77464789"
         offset="0.5996024"
         id="stop17" />
      <stop
         style="stop-color:#d60eb5;stop-opacity:1;"
         offset="1"
         id="stop16" />
    </linearGradient>
    <linearGradient
       id="linearGradient13"
       inkscape:swatch="gradient">
      <stop
         style="stop-color:#0033a1;stop-opacity:1;"
         offset="0"
         id="stop13" />
      <stop
         style="stop-color:#0033a1;stop-opacity:0;"
         offset="1"
         id="stop14" />
    </linearGradient>
    <linearGradient
       inkscape:collect="always"
       xlink:href="#linearGradient15"
       id="linearGradient16"
       x1="45.337269"
       y1="32.265682"
       x2="174.14923"
       y2="132.72694"
       gradientUnits="userSpaceOnUse" />
  </defs>
  <g
     inkscape:label="Calque 1"
     inkscape:groupmode="layer"
     id="layer1"
     transform="translate(-35.266581,-57.035278)">
    <path
       id="path1"
       style="fill:url(#linearGradient16);fill-opacity:1;stroke-width:0.264999;stroke-miterlimit:10;paint-order:stroke markers fill"
       d="m 87.355908,57.035278 a 30.742107,30.742107 0 0 0 -30.460673,26.806633 23.099998,23.099998 0 0 0 -21.628654,22.994459 23.099998,23.099998 0 0 0 23.06991,23.09782 v 0.002 h 12.811621 l -12.119157,15.73548 a 9.2109957,8.842556 0 0 0 -2.219503,-0.26097 9.2109957,8.842556 0 0 0 -9.211324,8.84287 9.2109957,8.842556 0 0 0 9.211324,8.84236 9.2109957,8.842556 0 0 0 9.210808,-8.84236 9.2109957,8.842556 0 0 0 -1.961638,-5.45083 l 14.530896,-18.86655 h 14.695227 v 22.02605 a 9.2109957,8.842556 0 0 0 -6.13761,8.31371 9.2109957,8.842556 0 0 0 9.210808,8.84235 9.2109957,8.842556 0 0 0 9.211327,-8.84235 9.2109957,8.842556 0 0 0 -6.389277,-8.415 v -21.92476 h 12.296927 l 14.39292,18.68724 a 9.2109957,8.842556 0 0 0 -2.12442,5.63014 9.2109957,8.842556 0 0 0 9.21081,8.84236 9.2109957,8.842556 0 0 0 9.21132,-8.84236 9.2109957,8.842556 0 0 0 -9.21132,-8.84287 9.2109957,8.842556 0 0 0 -1.94872,0.22324 l -12.09022,-15.69775 h 4.51962 v -0.0941 a 29.843628,32.299892 0 0 0 1.21853,0.0941 A 29.843628,32.299892 0 0 0 154.4991,97.636418 29.843628,32.299892 0 0 0 124.65544,65.33658 29.843628,32.299892 0 0 0 111.46865,68.721903 30.742107,30.742107 0 0 0 87.355908,57.035278 Z" />
  </g>
</svg>
